<?xml version="1.0" encoding="utf-8"?>
<!-- Generator: Adobe Illustrator 22.0.1, SVG Export Plug-In . SVG Version: 6.00 Build 0)  -->
<svg version="1.1" id="Layer_1" xmlns="http://www.w3.org/2000/svg" xmlns:xlink="http://www.w3.org/1999/xlink" x="0px" y="0px"
	 viewBox="0 0 200 100" style="enable-background:new 0 0 200 100;" xml:space="preserve">
<g>
	<path d="M26.4,35.5h2.4v16.6h8v2H26.4V35.5z"/>
	<path d="M51,47.3c0,4.9-3.4,7.1-6.7,7.1c-3.6,0-6.4-2.7-6.4-6.9c0-4.5,2.9-7.1,6.6-7.1C48.4,40.5,51,43.3,51,47.3z M40.4,47.5
		c0,2.9,1.7,5.1,4.1,5.1c2.3,0,4.1-2.2,4.1-5.2c0-2.3-1.1-5.1-4-5.1S40.4,44.9,40.4,47.5z"/>
	<path d="M54.1,44.9c0-1.6,0-2.9-0.1-4.2h2.1l0.1,2.6h0.1c0.6-1.8,2.1-2.9,3.7-2.9c0.3,0,0.5,0,0.7,0.1v2.3
		c-0.2-0.1-0.5-0.1-0.8-0.1c-1.7,0-2.9,1.3-3.3,3.1c-0.1,0.3-0.1,0.7-0.1,1.1v7.1h-2.4V44.9z"/>
	<path d="M64.2,47.9c0.1,3.3,2.2,4.6,4.6,4.6c1.7,0,2.8-0.3,3.7-0.7l0.4,1.7c-0.9,0.4-2.3,0.8-4.4,0.8c-4.1,0-6.6-2.7-6.6-6.7
		s2.4-7.2,6.3-7.2c4.4,0,5.5,3.8,5.5,6.3c0,0.5-0.1,0.9-0.1,1.1H64.2z M71.3,46.2c0-1.5-0.6-4-3.4-4c-2.5,0-3.5,2.3-3.7,4H71.3z"/>
	<path d="M76.7,44.4c0-1.4,0-2.5-0.1-3.6h2.1l0.1,2.2h0.1c0.7-1.3,2-2.5,4.2-2.5c1.8,0,3.2,1.1,3.8,2.7H87c0.4-0.7,0.9-1.3,1.5-1.7
		c0.8-0.6,1.7-0.9,3-0.9c1.8,0,4.4,1.2,4.4,5.8v7.9h-2.4v-7.6c0-2.6-0.9-4.1-2.9-4.1c-1.4,0-2.5,1-2.9,2.2c-0.1,0.3-0.2,0.8-0.2,1.2
		v8.3h-2.4v-8c0-2.1-0.9-3.7-2.8-3.7c-1.5,0-2.6,1.2-3,2.4c-0.1,0.4-0.2,0.8-0.2,1.2v8.1h-2.4V44.4z"/>
	<path d="M108.3,37c0,0.8-0.6,1.5-1.5,1.5c-0.9,0-1.5-0.7-1.5-1.5c0-0.9,0.6-1.5,1.5-1.5C107.7,35.5,108.3,36.2,108.3,37z
		 M105.6,54.1V40.8h2.4v13.4H105.6z"/>
	<path d="M112.1,45.1c0-1.7-0.1-3.1-0.1-4.4h2.2l0.1,2.3h0.1c1-1.6,2.6-2.6,4.8-2.6c3.2,0,5.7,2.7,5.7,6.8c0,4.8-2.9,7.2-6.1,7.2
		c-1.8,0-3.3-0.8-4.1-2.1h-0.1v7.3h-2.4V45.1z M114.5,48.7c0,0.4,0.1,0.7,0.1,1c0.4,1.7,1.9,2.8,3.6,2.8c2.6,0,4.1-2.1,4.1-5.2
		c0-2.7-1.4-5-4-5c-1.7,0-3.2,1.2-3.7,3c-0.1,0.3-0.2,0.7-0.2,1V48.7z"/>
	<path d="M127.5,51.7c0.7,0.5,2,1,3.2,1c1.8,0,2.6-0.9,2.6-2c0-1.2-0.7-1.8-2.5-2.5c-2.4-0.9-3.5-2.2-3.5-3.8c0-2.2,1.7-3.9,4.6-3.9
		c1.4,0,2.5,0.4,3.3,0.8l-0.6,1.8c-0.5-0.3-1.5-0.8-2.7-0.8c-1.4,0-2.2,0.8-2.2,1.8c0,1.1,0.8,1.6,2.5,2.3c2.3,0.9,3.5,2,3.5,4
		c0,2.3-1.8,4-5,4c-1.5,0-2.8-0.4-3.8-0.9L127.5,51.7z"/>
	<path d="M149.9,50.5c0,1.4,0,2.6,0.1,3.6h-2.2l-0.1-2.2h-0.1c-0.6,1.1-2,2.5-4.4,2.5c-2.1,0-4.6-1.2-4.6-5.9v-7.8h2.4v7.4
		c0,2.5,0.8,4.3,3,4.3c1.6,0,2.8-1.1,3.2-2.2c0.1-0.4,0.2-0.8,0.2-1.2v-8.2h2.4V50.5z"/>
	<path d="M154,44.4c0-1.4,0-2.5-0.1-3.6h2.1l0.1,2.2h0.1c0.7-1.3,2-2.5,4.2-2.5c1.8,0,3.2,1.1,3.8,2.7h0.1c0.4-0.7,0.9-1.3,1.5-1.7
		c0.8-0.6,1.7-0.9,3-0.9c1.8,0,4.4,1.2,4.4,5.8v7.9h-2.4v-7.6c0-2.6-0.9-4.1-2.9-4.1c-1.4,0-2.5,1-2.9,2.2c-0.1,0.3-0.2,0.8-0.2,1.2
		v8.3h-2.4v-8c0-2.1-0.9-3.7-2.8-3.7c-1.5,0-2.6,1.2-3,2.4c-0.1,0.4-0.2,0.8-0.2,1.2v8.1H154V44.4z"/>
</g>
</svg>
